<svg xmlns="http://www.w3.org/2000/svg" xmlns:xlink="http://www.w3.org/1999/xlink" width="80" zoomAndPan="magnify" viewBox="0 0 60 30.000001" height="40" preserveAspectRatio="xMidYMid meet" version="1.0"><defs><g/><clipPath id="4ffff90d7c"><path d="M 16 5.128906 L 19 5.128906 L 19 8 L 16 8 Z M 16 5.128906 " clip-rule="nonzero"/></clipPath><clipPath id="8f7ebe81a7"><path d="M 14 9 L 23.535156 9 L 23.535156 18.917969 L 14 18.917969 Z M 14 9 " clip-rule="nonzero"/></clipPath><clipPath id="8dfc016142"><path d="M 9.019531 10 L 14 10 L 14 17 L 9.019531 17 Z M 9.019531 10 " clip-rule="nonzero"/></clipPath><clipPath id="b12a752694"><path d="M 9.019531 5.128906 L 20 5.128906 L 20 15 L 9.019531 15 Z M 9.019531 5.128906 " clip-rule="nonzero"/></clipPath><clipPath id="f3a34a6a25"><path d="M 10 5.128906 L 13 5.128906 L 13 8 L 10 8 Z M 10 5.128906 " clip-rule="nonzero"/></clipPath></defs><g fill="#fdfdfd" fill-opacity="1"><g transform="translate(2.069102, 21.506728)"><g><path d="M 0.34375 0.09375 C 0.238281 0.0703125 0.164062 0.0195312 0.125 -0.0625 C 0.09375 -0.144531 0.078125 -0.242188 0.078125 -0.359375 L 0.078125 -1.828125 C 0.078125 -1.953125 0.140625 -2.035156 0.265625 -2.078125 C 0.390625 -2.117188 0.546875 -2.140625 0.734375 -2.140625 C 0.921875 -2.148438 1.109375 -2.144531 1.296875 -2.125 C 1.492188 -2.113281 1.660156 -2.113281 1.796875 -2.125 C 2.015625 -2.132812 2.160156 -2.1875 2.234375 -2.28125 C 2.316406 -2.375 2.320312 -2.476562 2.25 -2.59375 C 2.1875 -2.71875 2.046875 -2.820312 1.828125 -2.90625 C 1.398438 -3.0625 1.050781 -3.222656 0.78125 -3.390625 C 0.519531 -3.554688 0.320312 -3.75 0.1875 -3.96875 C 0.0625 -4.195312 0 -4.46875 0 -4.78125 C 0 -5.132812 0.0507812 -5.453125 0.15625 -5.734375 C 0.257812 -6.023438 0.445312 -6.28125 0.71875 -6.5 C 0.90625 -6.644531 1.117188 -6.753906 1.359375 -6.828125 C 1.597656 -6.898438 1.847656 -6.945312 2.109375 -6.96875 C 2.378906 -7 2.632812 -7.015625 2.875 -7.015625 C 2.988281 -7.023438 3.15625 -7.03125 3.375 -7.03125 C 3.59375 -7.03125 3.820312 -7.019531 4.0625 -7 C 4.300781 -6.988281 4.515625 -6.96875 4.703125 -6.9375 C 4.890625 -6.914062 5.003906 -6.878906 5.046875 -6.828125 C 5.085938 -6.773438 5.113281 -6.703125 5.125 -6.609375 C 5.132812 -6.523438 5.140625 -6.367188 5.140625 -6.140625 C 5.140625 -5.921875 5.132812 -5.582031 5.125 -5.125 C 5.125 -4.882812 4.984375 -4.765625 4.703125 -4.765625 C 4.554688 -4.765625 4.390625 -4.769531 4.203125 -4.78125 C 4.015625 -4.789062 3.832031 -4.796875 3.65625 -4.796875 C 3.488281 -4.796875 3.359375 -4.769531 3.265625 -4.71875 C 3.109375 -4.644531 3.019531 -4.535156 3 -4.390625 C 2.976562 -4.253906 3.066406 -4.132812 3.265625 -4.03125 C 3.390625 -3.976562 3.535156 -3.914062 3.703125 -3.84375 C 3.878906 -3.78125 4.050781 -3.710938 4.21875 -3.640625 C 4.6875 -3.421875 5.007812 -3.113281 5.1875 -2.71875 C 5.363281 -2.332031 5.394531 -1.910156 5.28125 -1.453125 C 5.238281 -1.242188 5.164062 -1.046875 5.0625 -0.859375 C 4.957031 -0.671875 4.816406 -0.503906 4.640625 -0.359375 C 4.410156 -0.171875 4.082031 -0.0390625 3.65625 0.03125 C 3.226562 0.113281 2.734375 0.148438 2.171875 0.140625 C 1.609375 0.140625 1 0.125 0.34375 0.09375 Z M 0.34375 0.09375 "/></g></g></g><g fill="#fdfdfd" fill-opacity="1"><g transform="translate(7.813438, 21.506728)"><g><path d="M 0.34375 0.0625 C 0.257812 0.0625 0.179688 0.0195312 0.109375 -0.0625 C 0.0351562 -0.15625 0 -0.242188 0 -0.328125 L 0.015625 -6.53125 C 0.015625 -6.65625 0.0507812 -6.75 0.125 -6.8125 C 0.195312 -6.875 0.273438 -6.90625 0.359375 -6.90625 L 2.125 -6.90625 C 2.28125 -6.90625 2.394531 -6.828125 2.46875 -6.671875 L 3.5 -4.203125 L 3.5 -6.546875 C 3.5 -6.660156 3.535156 -6.75 3.609375 -6.8125 C 3.679688 -6.882812 3.757812 -6.921875 3.84375 -6.921875 L 5.609375 -6.90625 C 5.710938 -6.90625 5.800781 -6.867188 5.875 -6.796875 C 5.945312 -6.722656 5.976562 -6.632812 5.96875 -6.53125 L 5.890625 -0.3125 C 5.890625 -0.21875 5.851562 -0.128906 5.78125 -0.046875 C 5.71875 0.0234375 5.632812 0.0625 5.53125 0.0625 L 3.859375 0.0625 C 3.773438 0.0625 3.707031 0.03125 3.65625 -0.03125 C 3.601562 -0.101562 3.5625 -0.164062 3.53125 -0.21875 L 2.40625 -2.546875 L 2.375 -0.328125 C 2.375 -0.203125 2.335938 -0.101562 2.265625 -0.03125 C 2.191406 0.03125 2.109375 0.0625 2.015625 0.0625 Z M 0.34375 0.0625 "/></g></g></g><g fill="#fdfdfd" fill-opacity="1"><g transform="translate(14.167617, 21.506728)"><g><path d="M 0.34375 0.03125 C 0.21875 0.03125 0.125 -0.0195312 0.0625 -0.125 C 0.0078125 -0.207031 -0.0078125 -0.269531 0 -0.3125 C 0.0078125 -0.363281 0.0234375 -0.445312 0.046875 -0.5625 L 1.5 -6.625 C 1.53125 -6.71875 1.570312 -6.804688 1.625 -6.890625 C 1.6875 -6.972656 1.757812 -7.015625 1.84375 -7.015625 L 4.328125 -7.015625 C 4.410156 -7.015625 4.476562 -6.972656 4.53125 -6.890625 C 4.59375 -6.804688 4.640625 -6.71875 4.671875 -6.625 L 6.125 -0.5625 C 6.144531 -0.445312 6.160156 -0.363281 6.171875 -0.3125 C 6.179688 -0.269531 6.160156 -0.207031 6.109375 -0.125 C 6.046875 -0.0195312 5.953125 0.03125 5.828125 0.03125 C 5.335938 0.03125 4.957031 0.03125 4.6875 0.03125 C 4.425781 0.0390625 4.234375 0.03125 4.109375 0 C 3.992188 -0.0195312 3.914062 -0.0703125 3.875 -0.15625 C 3.832031 -0.238281 3.796875 -0.367188 3.765625 -0.546875 L 3.71875 -0.84375 L 2.46875 -0.84375 L 2.40625 -0.546875 C 2.375 -0.367188 2.335938 -0.238281 2.296875 -0.15625 C 2.253906 -0.0703125 2.171875 -0.0195312 2.046875 0 C 1.929688 0.03125 1.738281 0.0390625 1.46875 0.03125 C 1.207031 0.03125 0.832031 0.03125 0.34375 0.03125 Z M 2.796875 -2.75 L 3.375 -2.75 L 3.09375 -4.375 Z M 2.796875 -2.75 "/></g></g></g><g fill="#fdfdfd" fill-opacity="1"><g transform="translate(20.728356, 21.506728)"><g><path d="M 0.359375 0 C 0.265625 0 0.179688 -0.0351562 0.109375 -0.109375 C 0.046875 -0.179688 0.015625 -0.273438 0.015625 -0.390625 L 0 -6.609375 C 0 -6.703125 0.03125 -6.785156 0.09375 -6.859375 C 0.164062 -6.941406 0.242188 -6.984375 0.328125 -6.984375 L 2.84375 -6.984375 C 3.332031 -6.984375 3.765625 -6.929688 4.140625 -6.828125 C 4.523438 -6.734375 4.847656 -6.570312 5.109375 -6.34375 C 5.367188 -6.113281 5.550781 -5.789062 5.65625 -5.375 C 5.695312 -5.21875 5.722656 -5.015625 5.734375 -4.765625 C 5.753906 -4.523438 5.753906 -4.269531 5.734375 -4 C 5.710938 -3.726562 5.664062 -3.472656 5.59375 -3.234375 C 5.53125 -2.992188 5.4375 -2.796875 5.3125 -2.640625 C 5.09375 -2.367188 4.828125 -2.160156 4.515625 -2.015625 C 4.210938 -1.878906 3.875 -1.785156 3.5 -1.734375 C 3.132812 -1.679688 2.75 -1.648438 2.34375 -1.640625 L 2.375 -0.40625 C 2.382812 -0.289062 2.347656 -0.195312 2.265625 -0.125 C 2.191406 -0.0507812 2.113281 -0.015625 2.03125 -0.015625 Z M 2.28125 -4.71875 L 2.296875 -3.640625 L 2.8125 -3.640625 C 3.039062 -3.640625 3.21875 -3.691406 3.34375 -3.796875 C 3.46875 -3.910156 3.53125 -4.039062 3.53125 -4.1875 C 3.539062 -4.332031 3.476562 -4.457031 3.34375 -4.5625 C 3.269531 -4.613281 3.132812 -4.648438 2.9375 -4.671875 C 2.738281 -4.703125 2.519531 -4.71875 2.28125 -4.71875 Z M 2.28125 -4.71875 "/></g></g></g><g fill="#fdfdfd" fill-opacity="1"><g transform="translate(26.875975, 21.506728)"><g><path d="M 3.828125 0.0625 C 3.453125 0.164062 3.0625 0.195312 2.65625 0.15625 C 2.257812 0.125 1.882812 0.0195312 1.53125 -0.15625 C 1.1875 -0.34375 0.898438 -0.597656 0.671875 -0.921875 C 0.472656 -1.203125 0.316406 -1.523438 0.203125 -1.890625 C 0.0976562 -2.265625 0.0351562 -2.65625 0.015625 -3.0625 C -0.00390625 -3.476562 0.0078125 -3.882812 0.0625 -4.28125 C 0.164062 -4.945312 0.382812 -5.507812 0.71875 -5.96875 C 1.0625 -6.4375 1.484375 -6.757812 1.984375 -6.9375 C 2.492188 -7.125 3.054688 -7.128906 3.671875 -6.953125 C 4.078125 -6.835938 4.394531 -6.671875 4.625 -6.453125 C 4.851562 -6.242188 5.015625 -6.003906 5.109375 -5.734375 C 5.210938 -5.472656 5.273438 -5.207031 5.296875 -4.9375 C 5.316406 -4.664062 5.320312 -4.421875 5.3125 -4.203125 C 5.300781 -4.015625 5.1875 -3.90625 4.96875 -3.875 L 3.625 -3.828125 C 3.53125 -3.816406 3.445312 -3.84375 3.375 -3.90625 C 3.300781 -3.976562 3.257812 -4.0625 3.25 -4.15625 C 3.25 -4.195312 3.242188 -4.269531 3.234375 -4.375 C 3.222656 -4.476562 3.203125 -4.578125 3.171875 -4.671875 C 3.140625 -4.773438 3.09375 -4.847656 3.03125 -4.890625 C 2.832031 -4.972656 2.679688 -4.953125 2.578125 -4.828125 C 2.472656 -4.703125 2.398438 -4.503906 2.359375 -4.234375 C 2.316406 -3.972656 2.296875 -3.664062 2.296875 -3.3125 L 2.296875 -3.265625 C 2.296875 -2.910156 2.347656 -2.613281 2.453125 -2.375 C 2.554688 -2.132812 2.675781 -1.972656 2.8125 -1.890625 C 2.945312 -1.804688 3.070312 -1.816406 3.1875 -1.921875 C 3.300781 -2.035156 3.375 -2.257812 3.40625 -2.59375 C 3.40625 -2.644531 3.382812 -2.671875 3.34375 -2.671875 L 3.0625 -2.671875 C 2.96875 -2.671875 2.921875 -2.71875 2.921875 -2.8125 L 2.921875 -3.203125 C 2.921875 -3.296875 2.96875 -3.34375 3.0625 -3.34375 L 5.328125 -3.34375 C 5.421875 -3.34375 5.46875 -3.296875 5.46875 -3.203125 C 5.46875 -2.609375 5.414062 -2.085938 5.3125 -1.640625 C 5.21875 -1.191406 5.050781 -0.820312 4.8125 -0.53125 C 4.582031 -0.25 4.253906 -0.0507812 3.828125 0.0625 Z M 3.828125 0.0625 "/></g></g></g><g fill="#fdfdfd" fill-opacity="1"><g transform="translate(32.728508, 21.506728)"><g><path d="M 1.984375 -0.046875 C 1.484375 -0.203125 1.09375 -0.472656 0.8125 -0.859375 C 0.53125 -1.253906 0.328125 -1.738281 0.203125 -2.3125 C 0.078125 -2.882812 0.0078125 -3.535156 0 -4.265625 C 0 -4.992188 0.0195312 -5.78125 0.0625 -6.625 C 0.0820312 -6.832031 0.203125 -6.941406 0.421875 -6.953125 L 2.140625 -6.953125 C 2.242188 -6.972656 2.332031 -6.945312 2.40625 -6.875 C 2.476562 -6.800781 2.515625 -6.710938 2.515625 -6.609375 C 2.503906 -6.378906 2.492188 -6.09375 2.484375 -5.75 C 2.484375 -5.414062 2.484375 -5.066406 2.484375 -4.703125 C 2.484375 -4.335938 2.488281 -3.988281 2.5 -3.65625 C 2.507812 -3.332031 2.523438 -3.054688 2.546875 -2.828125 C 2.566406 -2.597656 2.597656 -2.445312 2.640625 -2.375 C 2.734375 -2.238281 2.828125 -2.179688 2.921875 -2.203125 C 3.015625 -2.222656 3.097656 -2.296875 3.171875 -2.421875 C 3.253906 -2.546875 3.320312 -2.695312 3.375 -2.875 C 3.425781 -3.0625 3.457031 -3.25 3.46875 -3.4375 C 3.488281 -3.71875 3.5 -4.015625 3.5 -4.328125 C 3.5 -4.640625 3.5 -4.941406 3.5 -5.234375 C 3.5 -5.535156 3.5 -5.796875 3.5 -6.015625 C 3.5 -6.203125 3.5 -6.363281 3.5 -6.5 C 3.5 -6.644531 3.519531 -6.757812 3.5625 -6.84375 C 3.613281 -6.9375 3.707031 -6.984375 3.84375 -6.984375 C 4.320312 -6.984375 4.695312 -6.984375 4.96875 -6.984375 C 5.25 -6.984375 5.453125 -6.945312 5.578125 -6.875 C 5.703125 -6.8125 5.78125 -6.679688 5.8125 -6.484375 C 5.84375 -6.296875 5.859375 -6.007812 5.859375 -5.625 C 5.859375 -5.0625 5.847656 -4.515625 5.828125 -3.984375 C 5.816406 -3.453125 5.769531 -2.953125 5.6875 -2.484375 C 5.601562 -2.023438 5.46875 -1.609375 5.28125 -1.234375 C 5.101562 -0.867188 4.851562 -0.566406 4.53125 -0.328125 C 4.3125 -0.171875 4.046875 -0.0625 3.734375 0 C 3.429688 0.0703125 3.125 0.101562 2.8125 0.09375 C 2.507812 0.0820312 2.234375 0.0351562 1.984375 -0.046875 Z M 1.984375 -0.046875 "/></g></g></g><g fill="#fdfdfd" fill-opacity="1"><g transform="translate(38.984326, 21.506728)"><g><path d="M 0.34375 0.03125 C 0.21875 0.03125 0.125 -0.0195312 0.0625 -0.125 C 0.0078125 -0.207031 -0.0078125 -0.269531 0 -0.3125 C 0.0078125 -0.363281 0.0234375 -0.445312 0.046875 -0.5625 L 1.5 -6.625 C 1.53125 -6.71875 1.570312 -6.804688 1.625 -6.890625 C 1.6875 -6.972656 1.757812 -7.015625 1.84375 -7.015625 L 4.328125 -7.015625 C 4.410156 -7.015625 4.476562 -6.972656 4.53125 -6.890625 C 4.59375 -6.804688 4.640625 -6.71875 4.671875 -6.625 L 6.125 -0.5625 C 6.144531 -0.445312 6.160156 -0.363281 6.171875 -0.3125 C 6.179688 -0.269531 6.160156 -0.207031 6.109375 -0.125 C 6.046875 -0.0195312 5.953125 0.03125 5.828125 0.03125 C 5.335938 0.03125 4.957031 0.03125 4.6875 0.03125 C 4.425781 0.0390625 4.234375 0.03125 4.109375 0 C 3.992188 -0.0195312 3.914062 -0.0703125 3.875 -0.15625 C 3.832031 -0.238281 3.796875 -0.367188 3.765625 -0.546875 L 3.71875 -0.84375 L 2.46875 -0.84375 L 2.40625 -0.546875 C 2.375 -0.367188 2.335938 -0.238281 2.296875 -0.15625 C 2.253906 -0.0703125 2.171875 -0.0195312 2.046875 0 C 1.929688 0.03125 1.738281 0.0390625 1.46875 0.03125 C 1.207031 0.03125 0.832031 0.03125 0.34375 0.03125 Z M 2.796875 -2.75 L 3.375 -2.75 L 3.09375 -4.375 Z M 2.796875 -2.75 "/></g></g></g><g fill="#fdfdfd" fill-opacity="1"><g transform="translate(45.545065, 21.506728)"><g><path d="M 5.234375 0.046875 C 5.046875 0.046875 4.816406 0.046875 4.546875 0.046875 C 4.285156 0.046875 3.972656 0.046875 3.609375 0.046875 C 3.503906 0.046875 3.414062 0.015625 3.34375 -0.046875 C 3.28125 -0.117188 3.21875 -0.207031 3.15625 -0.3125 L 2.5625 -1.65625 L 2.375 -1.65625 L 2.40625 -0.40625 C 2.425781 -0.289062 2.394531 -0.195312 2.3125 -0.125 C 2.226562 -0.0507812 2.144531 -0.015625 2.0625 -0.015625 L 0.359375 0 C 0.265625 0 0.179688 -0.0351562 0.109375 -0.109375 C 0.046875 -0.179688 0.015625 -0.273438 0.015625 -0.390625 L 0 -6.53125 C 0 -6.625 0.03125 -6.710938 0.09375 -6.796875 C 0.164062 -6.878906 0.242188 -6.921875 0.328125 -6.921875 L 1.734375 -6.921875 C 2.253906 -6.929688 2.726562 -6.925781 3.15625 -6.90625 C 3.59375 -6.882812 3.972656 -6.828125 4.296875 -6.734375 C 4.628906 -6.640625 4.90625 -6.476562 5.125 -6.25 C 5.351562 -6.019531 5.507812 -5.691406 5.59375 -5.265625 C 5.632812 -5.097656 5.664062 -4.898438 5.6875 -4.671875 C 5.707031 -4.441406 5.710938 -4.195312 5.703125 -3.9375 C 5.691406 -3.6875 5.65625 -3.445312 5.59375 -3.21875 C 5.53125 -2.988281 5.4375 -2.796875 5.3125 -2.640625 C 5.144531 -2.441406 4.945312 -2.273438 4.71875 -2.140625 C 4.820312 -1.929688 4.941406 -1.6875 5.078125 -1.40625 C 5.210938 -1.132812 5.367188 -0.816406 5.546875 -0.453125 C 5.628906 -0.296875 5.644531 -0.171875 5.59375 -0.078125 C 5.539062 0.015625 5.421875 0.0546875 5.234375 0.046875 Z M 2.28125 -4.671875 L 2.3125 -3.640625 L 2.8125 -3.640625 C 3.039062 -3.640625 3.21875 -3.695312 3.34375 -3.8125 C 3.46875 -3.925781 3.53125 -4.054688 3.53125 -4.203125 C 3.539062 -4.347656 3.476562 -4.476562 3.34375 -4.59375 C 3.269531 -4.644531 3.132812 -4.664062 2.9375 -4.65625 C 2.75 -4.65625 2.53125 -4.660156 2.28125 -4.671875 Z M 2.28125 -4.671875 "/></g></g></g><g fill="#fdfdfd" fill-opacity="1"><g transform="translate(51.643506, 21.506728)"><g><path d="M 0.375 0.0625 C 0.269531 0.0625 0.1875 0.0234375 0.125 -0.046875 C 0.0390625 -0.128906 0 -0.222656 0 -0.328125 L 0.015625 -6.578125 C 0.015625 -6.691406 0.0507812 -6.789062 0.125 -6.875 C 0.195312 -6.945312 0.285156 -6.984375 0.390625 -6.984375 L 1.90625 -6.984375 C 2.257812 -6.984375 2.617188 -6.96875 2.984375 -6.9375 C 3.359375 -6.90625 3.71875 -6.835938 4.0625 -6.734375 C 4.40625 -6.628906 4.710938 -6.46875 4.984375 -6.25 C 5.253906 -6.039062 5.460938 -5.75 5.609375 -5.375 C 5.710938 -5.101562 5.785156 -4.785156 5.828125 -4.421875 C 5.878906 -4.054688 5.898438 -3.6875 5.890625 -3.3125 C 5.890625 -2.9375 5.863281 -2.601562 5.8125 -2.3125 C 5.726562 -1.8125 5.550781 -1.398438 5.28125 -1.078125 C 5.007812 -0.753906 4.679688 -0.507812 4.296875 -0.34375 C 3.921875 -0.175781 3.515625 -0.0625 3.078125 0 C 2.640625 0.0507812 2.203125 0.0703125 1.765625 0.0625 Z M 2.1875 -2.375 C 2.375 -2.375 2.550781 -2.390625 2.71875 -2.421875 C 2.882812 -2.460938 3.035156 -2.546875 3.171875 -2.671875 C 3.304688 -2.796875 3.414062 -2.984375 3.5 -3.234375 C 3.550781 -3.609375 3.550781 -3.882812 3.5 -4.0625 C 3.445312 -4.25 3.359375 -4.378906 3.234375 -4.453125 C 3.117188 -4.523438 2.984375 -4.570312 2.828125 -4.59375 C 2.722656 -4.613281 2.617188 -4.625 2.515625 -4.625 C 2.421875 -4.632812 2.328125 -4.628906 2.234375 -4.609375 Z M 2.1875 -2.375 "/></g></g></g><g clip-path="url(#4ffff90d7c)"><path fill="#fdfdfd" d="M 16.144531 6.792969 C 16.144531 6.792969 16.238281 6.351562 16.488281 6.015625 C 16.824219 5.570312 17.394531 5.230469 17.980469 5.601562 C 18.722656 6.078125 18.503906 6.828125 18.144531 7.324219 C 17.910156 7.644531 17.574219 7.828125 17.574219 7.828125 Z M 16.144531 6.792969 " fill-opacity="1" fill-rule="nonzero"/><path fill="#0c322f" d="M 17.574219 7.914062 C 17.585938 7.914062 17.601562 7.914062 17.617188 7.910156 C 17.628906 7.902344 17.972656 7.707031 18.214844 7.371094 C 18.488281 6.992188 18.609375 6.578125 18.546875 6.242188 C 18.488281 5.957031 18.316406 5.722656 18.03125 5.535156 C 17.394531 5.128906 16.773438 5.515625 16.429688 5.972656 C 16.164062 6.320312 16.074219 6.765625 16.074219 6.785156 C 16.066406 6.828125 16.09375 6.871094 16.136719 6.886719 C 16.179688 6.894531 16.222656 6.867188 16.238281 6.824219 C 16.238281 6.816406 16.328125 6.394531 16.566406 6.070312 C 16.878906 5.65625 17.410156 5.328125 17.945312 5.679688 C 18.195312 5.835938 18.34375 6.042969 18.386719 6.28125 C 18.445312 6.578125 18.335938 6.945312 18.085938 7.285156 C 17.867188 7.59375 17.542969 7.773438 17.539062 7.773438 C 17.496094 7.792969 17.480469 7.84375 17.5 7.886719 C 17.515625 7.902344 17.542969 7.914062 17.574219 7.914062 Z M 17.574219 7.914062 " fill-opacity="1" fill-rule="nonzero"/></g><path fill="#fdfdfd" d="M 17.507812 6.285156 C 17.507812 6.285156 17.128906 6.507812 16.988281 6.949219 Z M 17.507812 6.285156 " fill-opacity="1" fill-rule="nonzero"/><path fill="#0c322f" d="M 16.988281 7.03125 C 17.023438 7.03125 17.050781 7.007812 17.066406 6.972656 C 17.195312 6.566406 17.542969 6.351562 17.542969 6.351562 C 17.585938 6.328125 17.59375 6.28125 17.574219 6.238281 C 17.550781 6.199219 17.5 6.1875 17.457031 6.207031 C 17.445312 6.214844 17.050781 6.449219 16.902344 6.921875 C 16.886719 6.964844 16.910156 7.007812 16.957031 7.023438 C 16.972656 7.03125 16.980469 7.03125 16.988281 7.03125 Z M 16.988281 7.03125 " fill-opacity="1" fill-rule="nonzero"/><g clip-path="url(#8f7ebe81a7)"><path fill="#fdfdfd" d="M 23.269531 15.117188 C 23.269531 15.117188 22.761719 12.480469 21.71875 11.589844 C 20.675781 10.703125 15.5 9.28125 15.5 9.28125 L 17.53125 13.976562 C 17.53125 13.976562 15.316406 14.945312 14.929688 15.925781 C 14.480469 17.046875 14.328125 17.261719 14.328125 17.832031 C 14.328125 17.832031 14.5 18.589844 15.03125 18.589844 C 15.558594 18.589844 16.136719 18.554688 16.628906 18.054688 C 16.835938 17.839844 17.082031 17.332031 17.082031 17.332031 L 18.53125 16.917969 C 18.53125 16.917969 19.894531 16.660156 20.496094 15.691406 C 20.652344 15.441406 20.703125 15.125 20.703125 15.125 Z M 23.269531 15.117188 " fill-opacity="1" fill-rule="nonzero"/><path fill="#0c322f" d="M 15.023438 18.667969 C 14.4375 18.667969 14.25 17.882812 14.242188 17.847656 C 14.242188 17.363281 14.335938 17.125 14.601562 16.496094 C 14.671875 16.324219 14.75 16.132812 14.851562 15.890625 C 15.214844 14.984375 17.023438 14.109375 17.421875 13.933594 L 15.421875 9.316406 C 15.40625 9.289062 15.414062 9.25 15.4375 9.230469 C 15.457031 9.207031 15.488281 9.203125 15.523438 9.203125 C 15.738281 9.257812 20.730469 10.636719 21.773438 11.523438 C 22.824219 12.417969 23.332031 14.988281 23.347656 15.097656 C 23.355469 15.117188 23.347656 15.148438 23.332031 15.160156 C 23.316406 15.183594 23.296875 15.191406 23.269531 15.191406 L 20.761719 15.191406 C 20.738281 15.296875 20.675781 15.527344 20.554688 15.71875 C 19.9375 16.710938 18.59375 16.976562 18.539062 16.984375 L 17.128906 17.382812 C 17.074219 17.503906 16.867188 17.90625 16.679688 18.097656 C 16.179688 18.625 15.585938 18.667969 15.023438 18.667969 Z M 14.40625 17.832031 C 14.40625 17.832031 14.570312 18.511719 15.023438 18.511719 C 15.574219 18.511719 16.109375 18.46875 16.558594 17.996094 C 16.75 17.796875 16.996094 17.296875 16.996094 17.296875 C 17 17.277344 17.023438 17.261719 17.042969 17.253906 L 18.496094 16.839844 C 18.515625 16.832031 19.839844 16.574219 20.410156 15.648438 C 20.554688 15.410156 20.601562 15.109375 20.601562 15.109375 C 20.609375 15.066406 20.644531 15.039062 20.679688 15.039062 L 23.152344 15.039062 C 23.054688 14.5625 22.546875 12.417969 21.652344 11.660156 C 20.738281 10.882812 16.523438 9.667969 15.628906 9.417969 L 17.59375 13.953125 C 17.609375 13.996094 17.59375 14.046875 17.550781 14.0625 C 17.53125 14.066406 15.363281 15.03125 14.992188 15.960938 C 14.902344 16.199219 14.816406 16.398438 14.742188 16.570312 C 14.492188 17.183594 14.40625 17.398438 14.40625 17.832031 Z M 14.40625 17.832031 " fill-opacity="1" fill-rule="nonzero"/></g><g clip-path="url(#8dfc016142)"><path fill="#fdfdfd" d="M 13.535156 15.339844 L 12.207031 14.316406 L 10.984375 10.753906 C 10.984375 10.753906 9.871094 12.046875 9.542969 13.597656 C 9.207031 15.148438 9.71875 15.917969 10.382812 16.117188 C 11.042969 16.320312 11.671875 16.261719 11.671875 16.261719 C 11.671875 16.261719 12.3125 17.148438 13.070312 16.855469 C 13.714844 16.605469 13.9375 15.875 13.535156 15.339844 Z M 13.535156 15.339844 " fill-opacity="1" fill-rule="nonzero"/><path fill="#0c322f" d="M 12.75 16.996094 C 12.191406 16.996094 11.75 16.492188 11.636719 16.347656 C 11.476562 16.355469 10.933594 16.375 10.355469 16.199219 C 10.035156 16.097656 9.019531 15.617188 9.457031 13.574219 C 9.785156 12.03125 10.90625 10.714844 10.921875 10.703125 C 10.941406 10.679688 10.96875 10.667969 11 10.671875 C 11.027344 10.679688 11.050781 10.703125 11.0625 10.730469 L 12.277344 14.269531 L 13.585938 15.277344 C 13.59375 15.28125 13.601562 15.28125 13.601562 15.289062 C 13.800781 15.5625 13.863281 15.898438 13.773438 16.210938 C 13.679688 16.539062 13.429688 16.796875 13.09375 16.933594 C 12.980469 16.976562 12.863281 16.996094 12.75 16.996094 Z M 11.671875 16.175781 C 11.699219 16.175781 11.722656 16.191406 11.734375 16.210938 C 11.742188 16.21875 12.351562 17.039062 13.035156 16.777344 C 13.320312 16.660156 13.535156 16.441406 13.613281 16.160156 C 13.6875 15.90625 13.636719 15.625 13.472656 15.398438 L 12.15625 14.382812 C 12.140625 14.375 12.136719 14.359375 12.128906 14.347656 L 10.949219 10.917969 C 10.675781 11.257812 9.878906 12.359375 9.613281 13.609375 C 9.339844 14.898438 9.632812 15.804688 10.40625 16.039062 C 11.042969 16.234375 11.65625 16.175781 11.664062 16.175781 C 11.664062 16.175781 11.671875 16.175781 11.671875 16.175781 Z M 11.671875 16.175781 " fill-opacity="1" fill-rule="nonzero"/></g><path fill="#fdfdfd" d="M 11.84375 6.949219 C 11.183594 7.378906 10.328125 8.707031 10.105469 10.195312 C 9.90625 11.539062 10.054688 12.238281 10.484375 13.003906 C 11 13.925781 12.308594 14.597656 13.859375 14.597656 C 15.40625 14.597656 15.945312 14.640625 17.109375 14.355469 C 18.273438 14.066406 19.917969 12.882812 18.894531 10.589844 C 18.894531 10.589844 18.722656 8.074219 17.300781 6.957031 C 16.617188 6.5 16.164062 6.144531 14.84375 6.09375 C 13.523438 6.035156 12.363281 6.609375 11.84375 6.949219 Z M 11.84375 6.949219 " fill-opacity="1" fill-rule="nonzero"/><g clip-path="url(#b12a752694)"><path fill="#0c322f" d="M 14.757812 14.675781 C 14.636719 14.675781 14.507812 14.675781 14.363281 14.675781 L 13.859375 14.675781 C 12.34375 14.675781 10.957031 14.019531 10.414062 13.039062 C 10.011719 12.316406 9.820312 11.617188 10.027344 10.179688 C 10.242188 8.703125 11.097656 7.34375 11.800781 6.878906 C 12.484375 6.421875 13.648438 5.949219 14.84375 6 C 16.109375 6.050781 16.59375 6.378906 17.214844 6.792969 L 17.34375 6.878906 C 18.746094 7.980469 18.953125 10.332031 18.972656 10.558594 C 19.375 11.460938 19.402344 12.265625 19.066406 12.960938 C 18.660156 13.789062 17.800781 14.261719 17.128906 14.425781 C 16.214844 14.652344 15.6875 14.675781 14.757812 14.675781 Z M 11.84375 6.949219 L 11.886719 7.023438 C 11.214844 7.464844 10.390625 8.78125 10.183594 10.210938 C 9.976562 11.609375 10.15625 12.253906 10.550781 12.96875 C 11.070312 13.894531 12.394531 14.519531 13.851562 14.519531 L 14.359375 14.519531 C 15.523438 14.519531 16.066406 14.523438 17.082031 14.273438 C 17.714844 14.117188 18.53125 13.675781 18.910156 12.894531 C 19.222656 12.246094 19.195312 11.480469 18.808594 10.625 C 18.800781 10.617188 18.800781 10.601562 18.800781 10.59375 C 18.800781 10.574219 18.617188 8.101562 17.246094 7.023438 L 17.121094 6.945312 C 16.5 6.53125 16.050781 6.230469 14.835938 6.179688 C 13.351562 6.101562 12.121094 6.867188 11.890625 7.015625 Z M 11.84375 6.949219 " fill-opacity="1" fill-rule="nonzero"/></g><path fill="#fdfdfd" d="M 13.535156 13.109375 C 13.535156 13.109375 13.972656 13.308594 14.179688 12.839844 Z M 13.535156 13.109375 " fill-opacity="1" fill-rule="nonzero"/><path fill="#0c322f" d="M 13.75 13.230469 C 13.613281 13.230469 13.515625 13.183594 13.507812 13.183594 C 13.464844 13.160156 13.449219 13.117188 13.464844 13.074219 C 13.484375 13.03125 13.527344 13.011719 13.570312 13.03125 C 13.570312 13.03125 13.730469 13.101562 13.878906 13.046875 C 13.972656 13.011719 14.050781 12.933594 14.109375 12.804688 C 14.121094 12.761719 14.171875 12.738281 14.214844 12.761719 C 14.257812 12.78125 14.273438 12.824219 14.257812 12.867188 C 14.1875 13.03125 14.078125 13.140625 13.9375 13.195312 C 13.871094 13.226562 13.808594 13.230469 13.75 13.230469 Z M 13.75 13.230469 " fill-opacity="1" fill-rule="nonzero"/><path fill="#fdfdfd" d="M 14.652344 13.917969 C 14.652344 13.917969 14.152344 13.875 13.9375 13.109375 Z M 14.652344 13.917969 " fill-opacity="1" fill-rule="nonzero"/><path fill="#0c322f" d="M 14.652344 14.003906 C 14.644531 14.003906 14.644531 14.003906 14.652344 14.003906 C 14.621094 14.003906 14.085938 13.945312 13.859375 13.140625 C 13.84375 13.097656 13.871094 13.054688 13.914062 13.039062 C 13.964844 13.03125 14 13.054688 14.015625 13.097656 C 14.207031 13.789062 14.636719 13.839844 14.65625 13.847656 C 14.699219 13.855469 14.738281 13.890625 14.730469 13.933594 C 14.730469 13.96875 14.695312 14.003906 14.652344 14.003906 Z M 14.652344 14.003906 " fill-opacity="1" fill-rule="nonzero"/><path fill="#0c322f" d="M 14.714844 10.753906 C 14.714844 10.859375 14.675781 10.953125 14.601562 11.03125 C 14.523438 11.105469 14.429688 11.144531 14.320312 11.144531 C 14.214844 11.144531 14.121094 11.105469 14.042969 11.03125 C 13.96875 10.953125 13.929688 10.859375 13.929688 10.753906 C 13.929688 10.644531 13.96875 10.550781 14.042969 10.472656 C 14.121094 10.398438 14.214844 10.359375 14.320312 10.359375 C 14.429688 10.359375 14.523438 10.398438 14.601562 10.472656 C 14.675781 10.550781 14.714844 10.644531 14.714844 10.753906 Z M 14.714844 10.753906 " fill-opacity="1" fill-rule="nonzero"/><path fill="#0c322f" d="M 18.722656 10.753906 C 18.722656 10.859375 18.683594 10.953125 18.609375 11.03125 C 18.53125 11.105469 18.4375 11.144531 18.332031 11.144531 C 18.222656 11.144531 18.128906 11.105469 18.050781 11.03125 C 17.976562 10.953125 17.9375 10.859375 17.9375 10.753906 C 17.9375 10.644531 17.976562 10.550781 18.050781 10.472656 C 18.128906 10.398438 18.222656 10.359375 18.332031 10.359375 C 18.4375 10.359375 18.53125 10.398438 18.609375 10.472656 C 18.683594 10.550781 18.722656 10.644531 18.722656 10.753906 Z M 18.722656 10.753906 " fill-opacity="1" fill-rule="nonzero"/><g clip-path="url(#f3a34a6a25)"><path fill="#fdfdfd" d="M 12.820312 6.792969 C 12.820312 6.792969 12.726562 6.351562 12.476562 6.015625 C 12.140625 5.566406 11.5625 5.230469 10.984375 5.601562 C 10.242188 6.078125 10.464844 6.828125 10.820312 7.324219 C 11.054688 7.644531 11.390625 7.828125 11.390625 7.828125 Z M 12.820312 6.792969 " fill-opacity="1" fill-rule="nonzero"/><path fill="#0c322f" d="M 11.390625 7.914062 C 11.378906 7.914062 11.363281 7.914062 11.347656 7.910156 C 11.335938 7.902344 10.992188 7.707031 10.75 7.371094 C 10.476562 6.992188 10.355469 6.578125 10.421875 6.242188 C 10.476562 5.957031 10.648438 5.722656 10.933594 5.535156 C 11.570312 5.128906 12.191406 5.515625 12.535156 5.972656 C 12.800781 6.320312 12.894531 6.765625 12.894531 6.785156 C 12.898438 6.828125 12.871094 6.871094 12.828125 6.886719 C 12.785156 6.894531 12.742188 6.867188 12.726562 6.824219 C 12.726562 6.816406 12.636719 6.394531 12.398438 6.070312 C 12.09375 5.644531 11.5625 5.320312 11.027344 5.664062 C 10.777344 5.820312 10.628906 6.027344 10.585938 6.265625 C 10.527344 6.566406 10.636719 6.929688 10.886719 7.273438 C 11.105469 7.578125 11.429688 7.757812 11.433594 7.757812 C 11.476562 7.78125 11.492188 7.828125 11.472656 7.871094 C 11.449219 7.902344 11.421875 7.914062 11.390625 7.914062 Z M 11.390625 7.914062 " fill-opacity="1" fill-rule="nonzero"/></g><path fill="#fdfdfd" d="M 11.457031 6.285156 C 11.457031 6.285156 11.835938 6.507812 11.976562 6.949219 Z M 11.457031 6.285156 " fill-opacity="1" fill-rule="nonzero"/><path fill="#0c322f" d="M 11.972656 7.03125 C 11.933594 7.03125 11.90625 7.007812 11.890625 6.972656 C 11.765625 6.566406 11.414062 6.351562 11.414062 6.351562 C 11.371094 6.328125 11.363281 6.28125 11.386719 6.238281 C 11.40625 6.199219 11.457031 6.1875 11.5 6.207031 C 11.515625 6.214844 11.90625 6.449219 12.058594 6.921875 C 12.070312 6.964844 12.050781 7.007812 12 7.023438 C 11.992188 7.03125 11.984375 7.03125 11.972656 7.03125 Z M 11.972656 7.03125 " fill-opacity="1" fill-rule="nonzero"/><path fill="#0c322f" d="M 18.523438 11.375 C 18.523438 11.6875 18.160156 12.054688 17.707031 12.054688 C 17.257812 12.054688 16.894531 11.6875 16.894531 11.375 C 16.894531 11.058594 17.257812 10.910156 17.707031 10.910156 C 18.160156 10.917969 18.523438 11.058594 18.523438 11.375 Z M 18.523438 11.375 " fill-opacity="1" fill-rule="nonzero"/><path fill="#0c322f" d="M 17.867188 13.738281 C 17.824219 13.738281 17.789062 13.703125 17.789062 13.660156 L 17.789062 12.039062 C 17.789062 11.996094 17.824219 11.960938 17.867188 11.960938 C 17.910156 11.960938 17.945312 11.996094 17.945312 12.039062 L 17.945312 13.652344 C 17.953125 13.703125 17.910156 13.738281 17.867188 13.738281 Z M 17.867188 13.738281 " fill-opacity="1" fill-rule="nonzero"/><path fill="#fdfdfd" d="M 20.738281 15.046875 C 20.832031 14.890625 20.875 14.417969 20.910156 14.238281 Z M 20.738281 15.046875 " fill-opacity="1" fill-rule="nonzero"/><path fill="#0c322f" d="M 20.738281 15.125 C 20.722656 15.125 20.710938 15.117188 20.695312 15.109375 C 20.660156 15.089844 20.644531 15.039062 20.667969 14.996094 C 20.730469 14.890625 20.773438 14.597656 20.796875 14.398438 C 20.804688 14.324219 20.816406 14.261719 20.824219 14.21875 C 20.832031 14.175781 20.875 14.148438 20.917969 14.152344 C 20.960938 14.160156 20.988281 14.203125 20.980469 14.246094 C 20.972656 14.289062 20.96875 14.355469 20.953125 14.417969 C 20.917969 14.652344 20.882812 14.945312 20.804688 15.074219 C 20.796875 15.109375 20.765625 15.125 20.738281 15.125 Z M 20.738281 15.125 " fill-opacity="1" fill-rule="nonzero"/></svg>