<svg xmlns="http://www.w3.org/2000/svg" xmlns:xlink="http://www.w3.org/1999/xlink" width="500" zoomAndPan="magnify" viewBox="0 0 375 374.999991" height="500" preserveAspectRatio="xMidYMid meet" version="1.0"><defs><g/><clipPath id="4d3ce4b2f4"><path d="M 86 120 L 145.1875 120 L 145.1875 181.5625 L 86 181.5625 Z M 86 120 " clip-rule="nonzero"/></clipPath></defs><g fill="#063831" fill-opacity="1"><g transform="translate(7.112958, 203.642732)"><g><path d="M 2.21875 0.640625 C 1.539062 0.460938 1.085938 0.113281 0.859375 -0.40625 C 0.628906 -0.9375 0.515625 -1.582031 0.515625 -2.34375 L 0.515625 -11.75 C 0.515625 -12.550781 0.914062 -13.097656 1.71875 -13.390625 C 2.519531 -13.691406 3.523438 -13.851562 4.734375 -13.875 C 5.941406 -13.894531 7.171875 -13.863281 8.421875 -13.78125 C 9.671875 -13.695312 10.71875 -13.675781 11.5625 -13.71875 C 13 -13.800781 13.972656 -14.140625 14.484375 -14.734375 C 14.992188 -15.328125 15.023438 -16.015625 14.578125 -16.796875 C 14.128906 -17.585938 13.1875 -18.234375 11.75 -18.734375 C 9.039062 -19.753906 6.816406 -20.800781 5.078125 -21.875 C 3.347656 -22.957031 2.066406 -24.21875 1.234375 -25.65625 C 0.410156 -27.101562 0 -28.84375 0 -30.875 C 0 -33.164062 0.328125 -35.226562 0.984375 -37.0625 C 1.640625 -38.90625 2.859375 -40.53125 4.640625 -41.9375 C 5.828125 -42.863281 7.203125 -43.554688 8.765625 -44.015625 C 10.335938 -44.484375 11.976562 -44.800781 13.6875 -44.96875 C 15.40625 -45.144531 17.023438 -45.253906 18.546875 -45.296875 C 19.265625 -45.335938 20.332031 -45.359375 21.75 -45.359375 C 23.175781 -45.359375 24.660156 -45.316406 26.203125 -45.234375 C 27.753906 -45.148438 29.128906 -45.007812 30.328125 -44.8125 C 31.535156 -44.625 32.289062 -44.363281 32.59375 -44.03125 C 32.84375 -43.726562 33.007812 -43.28125 33.09375 -42.6875 C 33.1875 -42.09375 33.21875 -41.078125 33.1875 -39.640625 C 33.164062 -38.203125 33.132812 -36 33.09375 -33.03125 C 33.09375 -31.507812 32.1875 -30.75 30.375 -30.75 C 29.394531 -30.75 28.300781 -30.78125 27.09375 -30.84375 C 25.882812 -30.90625 24.726562 -30.9375 23.625 -30.9375 C 22.53125 -30.9375 21.6875 -30.789062 21.09375 -30.5 C 20.070312 -30.03125 19.488281 -29.335938 19.34375 -28.421875 C 19.195312 -27.515625 19.78125 -26.722656 21.09375 -26.046875 C 21.851562 -25.660156 22.796875 -25.253906 23.921875 -24.828125 C 25.046875 -24.410156 26.132812 -23.96875 27.1875 -23.5 C 30.238281 -22.0625 32.335938 -20.09375 33.484375 -17.59375 C 34.628906 -15.09375 34.835938 -12.34375 34.109375 -9.34375 C 33.816406 -8.03125 33.332031 -6.757812 32.65625 -5.53125 C 31.976562 -4.300781 31.085938 -3.238281 29.984375 -2.34375 C 28.460938 -1.125 26.320312 -0.257812 23.5625 0.25 C 20.8125 0.757812 17.625 1.003906 14 0.984375 C 10.382812 0.960938 6.457031 0.847656 2.21875 0.640625 Z M 2.21875 0.640625 "/></g></g></g><g fill="#063831" fill-opacity="1"><g transform="translate(44.211794, 203.642732)"><g><path d="M 2.21875 0.375 C 1.664062 0.375 1.15625 0.101562 0.6875 -0.4375 C 0.226562 -0.988281 0 -1.539062 0 -2.09375 L 0.125 -42.125 C 0.125 -42.925781 0.359375 -43.535156 0.828125 -43.953125 C 1.296875 -44.378906 1.800781 -44.59375 2.34375 -44.59375 L 13.71875 -44.53125 C 14.738281 -44.53125 15.457031 -44.023438 15.875 -43.015625 L 22.546875 -27.125 L 22.609375 -42.25 C 22.609375 -43.007812 22.84375 -43.597656 23.3125 -44.015625 C 23.78125 -44.441406 24.289062 -44.65625 24.84375 -44.65625 L 36.21875 -44.59375 C 36.894531 -44.59375 37.460938 -44.347656 37.921875 -43.859375 C 38.390625 -43.378906 38.582031 -42.800781 38.5 -42.125 L 37.984375 -2.03125 C 37.984375 -1.394531 37.757812 -0.832031 37.3125 -0.34375 C 36.875 0.132812 36.335938 0.375 35.703125 0.375 L 24.90625 0.375 C 24.351562 0.375 23.90625 0.164062 23.5625 -0.25 C 23.226562 -0.675781 22.976562 -1.054688 22.8125 -1.390625 L 15.5625 -16.390625 L 15.3125 -2.09375 C 15.3125 -1.332031 15.078125 -0.726562 14.609375 -0.28125 C 14.140625 0.15625 13.613281 0.375 13.03125 0.375 Z M 2.21875 0.375 "/></g></g></g><g fill="#063831" fill-opacity="1"><g transform="translate(85.249197, 203.642732)"><g><path d="M 2.21875 0.1875 C 1.414062 0.1875 0.800781 -0.148438 0.375 -0.828125 C 0.0820312 -1.335938 -0.03125 -1.738281 0.03125 -2.03125 C 0.09375 -2.332031 0.1875 -2.863281 0.3125 -3.625 L 9.71875 -42.75 C 9.882812 -43.382812 10.144531 -43.957031 10.5 -44.46875 C 10.863281 -44.976562 11.34375 -45.234375 11.9375 -45.234375 L 27.890625 -45.234375 C 28.484375 -45.234375 28.957031 -44.976562 29.3125 -44.46875 C 29.675781 -43.957031 29.941406 -43.382812 30.109375 -42.75 L 39.515625 -3.625 C 39.640625 -2.863281 39.742188 -2.332031 39.828125 -2.03125 C 39.921875 -1.738281 39.796875 -1.335938 39.453125 -0.828125 C 39.023438 -0.148438 38.410156 0.1875 37.609375 0.1875 C 34.472656 0.1875 32.035156 0.195312 30.296875 0.21875 C 28.566406 0.238281 27.316406 0.175781 26.546875 0.03125 C 25.785156 -0.113281 25.28125 -0.453125 25.03125 -0.984375 C 24.78125 -1.515625 24.546875 -2.351562 24.328125 -3.5 L 23.953125 -5.46875 L 15.875 -5.46875 L 15.5 -3.5 C 15.289062 -2.351562 15.054688 -1.515625 14.796875 -0.984375 C 14.546875 -0.453125 14.039062 -0.113281 13.28125 0.03125 C 12.519531 0.175781 11.269531 0.238281 9.53125 0.21875 C 7.789062 0.195312 5.351562 0.1875 2.21875 0.1875 Z M 18.046875 -17.71875 L 21.796875 -17.71875 L 19.953125 -28.265625 Z M 18.046875 -17.71875 "/></g></g></g><g fill="#063831" fill-opacity="1"><g transform="translate(127.620633, 203.642732)"><g><path d="M 2.28125 0 C 1.6875 0 1.175781 -0.242188 0.75 -0.734375 C 0.332031 -1.222656 0.125 -1.804688 0.125 -2.484375 L 0 -42.625 C 0 -43.21875 0.21875 -43.78125 0.65625 -44.3125 C 1.101562 -44.84375 1.601562 -45.109375 2.15625 -45.109375 L 18.359375 -45.046875 C 21.492188 -45.046875 24.289062 -44.738281 26.75 -44.125 C 29.207031 -43.507812 31.269531 -42.445312 32.9375 -40.9375 C 34.613281 -39.4375 35.789062 -37.351562 36.46875 -34.6875 C 36.757812 -33.664062 36.957031 -32.359375 37.0625 -30.765625 C 37.175781 -29.179688 37.164062 -27.519531 37.03125 -25.78125 C 36.90625 -24.050781 36.617188 -22.410156 36.171875 -20.859375 C 35.734375 -19.316406 35.113281 -18.0625 34.3125 -17.09375 C 32.863281 -15.3125 31.144531 -13.960938 29.15625 -13.046875 C 27.164062 -12.140625 24.984375 -11.523438 22.609375 -11.203125 C 20.242188 -10.890625 17.75 -10.691406 15.125 -10.609375 L 15.3125 -2.609375 C 15.394531 -1.890625 15.179688 -1.285156 14.671875 -0.796875 C 14.160156 -0.304688 13.632812 -0.0625 13.09375 -0.0625 Z M 14.671875 -30.5 L 14.859375 -23.5 L 18.109375 -23.5 C 19.585938 -23.5 20.726562 -23.847656 21.53125 -24.546875 C 22.34375 -25.253906 22.769531 -26.070312 22.8125 -27 C 22.851562 -27.925781 22.425781 -28.753906 21.53125 -29.484375 C 21.113281 -29.816406 20.269531 -30.054688 19 -30.203125 C 17.726562 -30.359375 16.285156 -30.457031 14.671875 -30.5 Z M 14.671875 -30.5 "/></g></g></g><g fill="#063831" fill-opacity="1"><g transform="translate(167.324001, 203.642732)"><g><path d="M 24.71875 0.4375 C 22.257812 1.125 19.738281 1.335938 17.15625 1.078125 C 14.570312 0.828125 12.15625 0.109375 9.90625 -1.078125 C 7.664062 -2.265625 5.800781 -3.875 4.3125 -5.90625 C 3.050781 -7.726562 2.066406 -9.832031 1.359375 -12.21875 C 0.660156 -14.613281 0.238281 -17.144531 0.09375 -19.8125 C -0.0507812 -22.488281 0.0625 -25.097656 0.4375 -27.640625 C 1.125 -31.953125 2.554688 -35.601562 4.734375 -38.59375 C 6.910156 -41.582031 9.628906 -43.65625 12.890625 -44.8125 C 16.148438 -45.976562 19.753906 -45.992188 23.703125 -44.859375 C 26.328125 -44.128906 28.378906 -43.078125 29.859375 -41.703125 C 31.335938 -40.328125 32.394531 -38.78125 33.03125 -37.0625 C 33.664062 -35.351562 34.046875 -33.628906 34.171875 -31.890625 C 34.304688 -30.148438 34.332031 -28.5625 34.25 -27.125 C 34.207031 -25.894531 33.460938 -25.175781 32.015625 -24.96875 L 23.4375 -24.71875 C 22.800781 -24.632812 22.238281 -24.8125 21.75 -25.25 C 21.269531 -25.695312 21.007812 -26.238281 20.96875 -26.875 C 20.96875 -27.125 20.9375 -27.578125 20.875 -28.234375 C 20.8125 -28.890625 20.679688 -29.546875 20.484375 -30.203125 C 20.296875 -30.859375 19.988281 -31.316406 19.5625 -31.578125 C 18.289062 -32.128906 17.316406 -32 16.640625 -31.1875 C 15.960938 -30.382812 15.492188 -29.113281 15.234375 -27.375 C 14.984375 -25.644531 14.859375 -23.65625 14.859375 -21.40625 L 14.859375 -21.09375 C 14.859375 -18.757812 15.1875 -16.832031 15.84375 -15.3125 C 16.5 -13.789062 17.257812 -12.765625 18.125 -12.234375 C 19 -11.703125 19.804688 -11.785156 20.546875 -12.484375 C 21.296875 -13.179688 21.773438 -14.609375 21.984375 -16.765625 C 21.984375 -17.066406 21.832031 -17.21875 21.53125 -17.21875 L 19.765625 -17.21875 C 19.171875 -17.21875 18.875 -17.515625 18.875 -18.109375 L 18.875 -20.71875 C 18.875 -21.300781 19.171875 -21.59375 19.765625 -21.59375 L 34.375 -21.59375 C 34.96875 -21.59375 35.265625 -21.300781 35.265625 -20.71875 C 35.265625 -16.863281 34.957031 -13.492188 34.34375 -10.609375 C 33.726562 -7.734375 32.65625 -5.363281 31.125 -3.5 C 29.601562 -1.632812 27.46875 -0.320312 24.71875 0.4375 Z M 24.71875 0.4375 "/></g></g></g><g fill="#063831" fill-opacity="1"><g transform="translate(205.121607, 203.642732)"><g><path d="M 12.828125 -0.25 C 9.566406 -1.3125 7.023438 -3.09375 5.203125 -5.59375 C 3.390625 -8.09375 2.085938 -11.203125 1.296875 -14.921875 C 0.515625 -18.648438 0.101562 -22.863281 0.0625 -27.5625 C 0.0195312 -32.269531 0.144531 -37.332031 0.4375 -42.75 C 0.570312 -44.0625 1.335938 -44.785156 2.734375 -44.921875 L 13.84375 -44.921875 C 14.476562 -45.003906 15.03125 -44.8125 15.5 -44.34375 C 15.96875 -43.875 16.203125 -43.300781 16.203125 -42.625 C 16.160156 -41.144531 16.117188 -39.320312 16.078125 -37.15625 C 16.035156 -35 16.015625 -32.742188 16.015625 -30.390625 C 16.015625 -28.046875 16.046875 -25.800781 16.109375 -23.65625 C 16.171875 -21.519531 16.273438 -19.710938 16.421875 -18.234375 C 16.566406 -16.753906 16.769531 -15.800781 17.03125 -15.375 C 17.625 -14.488281 18.226562 -14.109375 18.84375 -14.234375 C 19.457031 -14.359375 20.015625 -14.820312 20.515625 -15.625 C 21.023438 -16.425781 21.445312 -17.421875 21.78125 -18.609375 C 22.125 -19.796875 22.316406 -20.984375 22.359375 -22.171875 C 22.484375 -23.992188 22.554688 -25.910156 22.578125 -27.921875 C 22.597656 -29.929688 22.609375 -31.890625 22.609375 -33.796875 C 22.609375 -35.703125 22.609375 -37.375 22.609375 -38.8125 C 22.566406 -40 22.546875 -41.054688 22.546875 -41.984375 C 22.546875 -42.921875 22.703125 -43.664062 23.015625 -44.21875 C 23.335938 -44.769531 23.925781 -45.046875 24.78125 -45.046875 C 27.914062 -45.046875 30.367188 -45.046875 32.140625 -45.046875 C 33.921875 -45.046875 35.210938 -44.832031 36.015625 -44.40625 C 36.828125 -43.976562 37.335938 -43.140625 37.546875 -41.890625 C 37.753906 -40.648438 37.859375 -38.78125 37.859375 -36.28125 C 37.859375 -32.675781 37.796875 -29.15625 37.671875 -25.71875 C 37.546875 -22.289062 37.21875 -19.070312 36.6875 -16.0625 C 36.15625 -13.0625 35.304688 -10.375 34.140625 -8 C 32.984375 -5.632812 31.363281 -3.6875 29.28125 -2.15625 C 27.84375 -1.144531 26.140625 -0.414062 24.171875 0.03125 C 22.203125 0.476562 20.210938 0.671875 18.203125 0.609375 C 16.191406 0.546875 14.398438 0.257812 12.828125 -0.25 Z M 12.828125 -0.25 "/></g></g></g><g fill="#063831" fill-opacity="1"><g transform="translate(245.523761, 203.642732)"><g><path d="M 2.21875 0.1875 C 1.414062 0.1875 0.800781 -0.148438 0.375 -0.828125 C 0.0820312 -1.335938 -0.03125 -1.738281 0.03125 -2.03125 C 0.09375 -2.332031 0.1875 -2.863281 0.3125 -3.625 L 9.71875 -42.75 C 9.882812 -43.382812 10.144531 -43.957031 10.5 -44.46875 C 10.863281 -44.976562 11.34375 -45.234375 11.9375 -45.234375 L 27.890625 -45.234375 C 28.484375 -45.234375 28.957031 -44.976562 29.3125 -44.46875 C 29.675781 -43.957031 29.941406 -43.382812 30.109375 -42.75 L 39.515625 -3.625 C 39.640625 -2.863281 39.742188 -2.332031 39.828125 -2.03125 C 39.921875 -1.738281 39.796875 -1.335938 39.453125 -0.828125 C 39.023438 -0.148438 38.410156 0.1875 37.609375 0.1875 C 34.472656 0.1875 32.035156 0.195312 30.296875 0.21875 C 28.566406 0.238281 27.316406 0.175781 26.546875 0.03125 C 25.785156 -0.113281 25.28125 -0.453125 25.03125 -0.984375 C 24.78125 -1.515625 24.546875 -2.351562 24.328125 -3.5 L 23.953125 -5.46875 L 15.875 -5.46875 L 15.5 -3.5 C 15.289062 -2.351562 15.054688 -1.515625 14.796875 -0.984375 C 14.546875 -0.453125 14.039062 -0.113281 13.28125 0.03125 C 12.519531 0.175781 11.269531 0.238281 9.53125 0.21875 C 7.789062 0.195312 5.351562 0.1875 2.21875 0.1875 Z M 18.046875 -17.71875 L 21.796875 -17.71875 L 19.953125 -28.265625 Z M 18.046875 -17.71875 "/></g></g></g><g fill="#063831" fill-opacity="1"><g transform="translate(287.895197, 203.642732)"><g><path d="M 33.796875 0.3125 C 32.566406 0.269531 31.09375 0.25 29.375 0.25 C 27.664062 0.25 25.625 0.25 23.25 0.25 C 22.570312 0.25 22.019531 0.0390625 21.59375 -0.375 C 21.175781 -0.800781 20.773438 -1.351562 20.390625 -2.03125 L 16.515625 -10.671875 L 15.3125 -10.671875 L 15.5625 -2.609375 C 15.644531 -1.890625 15.429688 -1.285156 14.921875 -0.796875 C 14.421875 -0.304688 13.894531 -0.0625 13.34375 -0.0625 L 2.28125 0 C 1.6875 0 1.175781 -0.242188 0.75 -0.734375 C 0.332031 -1.222656 0.125 -1.804688 0.125 -2.484375 L 0 -42.1875 C 0 -42.78125 0.21875 -43.335938 0.65625 -43.859375 C 1.101562 -44.390625 1.601562 -44.65625 2.15625 -44.65625 L 11.1875 -44.65625 C 14.53125 -44.695312 17.597656 -44.664062 20.390625 -44.5625 C 23.191406 -44.457031 25.660156 -44.097656 27.796875 -43.484375 C 29.929688 -42.867188 31.707031 -41.820312 33.125 -40.34375 C 34.550781 -38.863281 35.5625 -36.742188 36.15625 -33.984375 C 36.363281 -32.929688 36.539062 -31.648438 36.6875 -30.140625 C 36.832031 -28.640625 36.863281 -27.070312 36.78125 -25.4375 C 36.695312 -23.8125 36.460938 -22.253906 36.078125 -20.765625 C 35.703125 -19.285156 35.113281 -18.0625 34.3125 -17.09375 C 33.25 -15.78125 31.976562 -14.695312 30.5 -13.84375 C 31.175781 -12.488281 31.9375 -10.921875 32.78125 -9.140625 C 33.625 -7.367188 34.640625 -5.296875 35.828125 -2.921875 C 36.335938 -1.898438 36.429688 -1.09375 36.109375 -0.5 C 35.796875 0.0820312 35.023438 0.351562 33.796875 0.3125 Z M 14.734375 -30.109375 L 14.9375 -23.5 L 18.109375 -23.5 C 19.585938 -23.5 20.726562 -23.859375 21.53125 -24.578125 C 22.34375 -25.304688 22.769531 -26.144531 22.8125 -27.09375 C 22.851562 -28.050781 22.425781 -28.890625 21.53125 -29.609375 C 21.113281 -29.941406 20.28125 -30.097656 19.03125 -30.078125 C 17.78125 -30.054688 16.347656 -30.066406 14.734375 -30.109375 Z M 14.734375 -30.109375 "/></g></g></g><g fill="#063831" fill-opacity="1"><g transform="translate(327.280956, 203.642732)"><g><path d="M 2.421875 0.4375 C 1.785156 0.4375 1.234375 0.1875 0.765625 -0.3125 C 0.253906 -0.820312 0 -1.414062 0 -2.09375 L 0.125 -42.5 C 0.125 -43.175781 0.359375 -43.789062 0.828125 -44.34375 C 1.296875 -44.851562 1.867188 -45.109375 2.546875 -45.109375 L 12.265625 -45.046875 C 14.546875 -45.046875 16.894531 -44.945312 19.3125 -44.75 C 21.726562 -44.5625 24.035156 -44.140625 26.234375 -43.484375 C 28.441406 -42.828125 30.421875 -41.800781 32.171875 -40.40625 C 33.929688 -39.007812 35.28125 -37.101562 36.21875 -34.6875 C 36.894531 -32.945312 37.378906 -30.890625 37.671875 -28.515625 C 37.972656 -26.148438 38.097656 -23.757812 38.046875 -21.34375 C 38.003906 -18.925781 37.816406 -16.789062 37.484375 -14.9375 C 36.929688 -11.664062 35.796875 -9.003906 34.078125 -6.953125 C 32.367188 -4.898438 30.285156 -3.332031 27.828125 -2.25 C 25.367188 -1.175781 22.71875 -0.445312 19.875 -0.0625 C 17.039062 0.320312 14.226562 0.488281 11.4375 0.4375 Z M 14.171875 -15.375 C 15.359375 -15.332031 16.488281 -15.4375 17.5625 -15.6875 C 18.644531 -15.945312 19.617188 -16.476562 20.484375 -17.28125 C 21.359375 -18.082031 22.046875 -19.289062 22.546875 -20.90625 C 22.890625 -23.3125 22.890625 -25.109375 22.546875 -26.296875 C 22.210938 -27.484375 21.664062 -28.300781 20.90625 -28.75 C 20.144531 -29.195312 19.253906 -29.503906 18.234375 -29.671875 C 17.554688 -29.796875 16.898438 -29.867188 16.265625 -29.890625 C 15.628906 -29.910156 15.015625 -29.878906 14.421875 -29.796875 Z M 14.171875 -15.375 "/></g></g></g><path fill="#fdfdfd" d="M 98.96875 104.585938 C 98.96875 104.585938 99.570312 101.722656 101.183594 99.550781 C 103.355469 96.691406 107.046875 94.472656 110.832031 96.875 C 115.636719 99.96875 114.203125 104.816406 111.894531 108 C 110.371094 110.078125 108.203125 111.277344 108.203125 111.277344 Z M 98.96875 104.585938 " fill-opacity="1" fill-rule="nonzero"/><path fill="#0c322f" d="M 108.203125 111.832031 C 108.292969 111.832031 108.386719 111.832031 108.480469 111.785156 C 108.570312 111.742188 110.789062 110.492188 112.355469 108.324219 C 114.113281 105.878906 114.894531 103.199219 114.480469 101.03125 C 114.113281 99.183594 113.003906 97.660156 111.15625 96.457031 C 107.046875 93.828125 103.03125 96.320312 100.816406 99.273438 C 99.105469 101.539062 98.507812 104.398438 98.507812 104.539062 C 98.460938 104.816406 98.644531 105.09375 98.921875 105.183594 C 99.199219 105.230469 99.476562 105.046875 99.570312 104.769531 C 99.570312 104.722656 100.167969 102 101.691406 99.921875 C 103.722656 97.242188 107.140625 95.121094 110.601562 97.382812 C 112.21875 98.398438 113.1875 99.738281 113.464844 101.261719 C 113.835938 103.199219 113.140625 105.554688 111.527344 107.769531 C 110.09375 109.753906 108.015625 110.910156 107.972656 110.910156 C 107.695312 111.046875 107.601562 111.371094 107.742188 111.648438 C 107.832031 111.742188 108.015625 111.832031 108.203125 111.832031 Z M 108.203125 111.832031 " fill-opacity="1" fill-rule="nonzero"/><path fill="#fdfdfd" d="M 107.785156 101.304688 C 107.785156 101.304688 105.339844 102.738281 104.417969 105.601562 Z M 107.785156 101.304688 " fill-opacity="1" fill-rule="nonzero"/><path fill="#0c322f" d="M 104.417969 106.109375 C 104.648438 106.109375 104.832031 105.96875 104.925781 105.738281 C 105.753906 103.105469 108.015625 101.722656 108.015625 101.722656 C 108.292969 101.582031 108.339844 101.261719 108.203125 100.984375 C 108.0625 100.753906 107.742188 100.660156 107.464844 100.796875 C 107.371094 100.84375 104.832031 102.367188 103.863281 105.414062 C 103.769531 105.691406 103.910156 105.96875 104.230469 106.0625 C 104.324219 106.109375 104.371094 106.109375 104.417969 106.109375 Z M 104.417969 106.109375 " fill-opacity="1" fill-rule="nonzero"/><path fill="#fdfdfd" d="M 145 158.371094 C 145 158.371094 141.71875 141.335938 134.980469 135.5625 C 128.238281 129.839844 94.8125 120.652344 94.8125 120.652344 L 107.925781 150.984375 C 107.925781 150.984375 93.613281 157.261719 91.121094 163.585938 C 88.210938 170.835938 87.242188 172.21875 87.242188 175.914062 C 87.242188 175.914062 88.351562 180.808594 91.765625 180.808594 C 95.183594 180.808594 98.921875 180.578125 102.109375 177.34375 C 103.445312 175.960938 105.015625 172.683594 105.015625 172.683594 L 114.386719 170.003906 C 114.386719 170.003906 123.207031 168.34375 127.085938 162.0625 C 128.101562 160.449219 128.421875 158.417969 128.421875 158.417969 Z M 145 158.371094 " fill-opacity="1" fill-rule="nonzero"/><g clip-path="url(#4d3ce4b2f4)"><path fill="#0c322f" d="M 91.71875 181.316406 C 87.933594 181.316406 86.734375 176.238281 86.6875 176.007812 C 86.6875 172.867188 87.289062 171.34375 88.996094 167.28125 C 89.457031 166.171875 89.964844 164.925781 90.613281 163.355469 C 92.964844 157.492188 104.648438 151.859375 107.234375 150.707031 L 94.304688 120.882812 C 94.214844 120.695312 94.257812 120.464844 94.398438 120.328125 C 94.535156 120.1875 94.722656 120.144531 94.953125 120.144531 C 96.335938 120.511719 128.609375 129.421875 135.347656 135.148438 C 142.136719 140.917969 145.414062 157.539062 145.507812 158.230469 C 145.550781 158.371094 145.507812 158.554688 145.414062 158.648438 C 145.320312 158.785156 145.183594 158.832031 145 158.832031 L 128.792969 158.832031 C 128.65625 159.523438 128.238281 161 127.453125 162.25 C 123.484375 168.664062 114.804688 170.375 114.433594 170.421875 L 105.339844 173.003906 C 104.96875 173.789062 103.632812 176.375 102.429688 177.621094 C 99.199219 181.039062 95.367188 181.316406 91.71875 181.316406 Z M 87.75 175.914062 C 87.75 175.914062 88.8125 180.300781 91.71875 180.300781 C 95.273438 180.300781 98.738281 180.023438 101.644531 176.976562 C 102.894531 175.683594 104.460938 172.453125 104.460938 172.453125 C 104.507812 172.3125 104.648438 172.21875 104.785156 172.175781 L 114.15625 169.496094 C 114.296875 169.449219 122.835938 167.789062 126.53125 161.785156 C 127.453125 160.261719 127.777344 158.324219 127.777344 158.324219 C 127.824219 158.046875 128.054688 157.863281 128.285156 157.863281 L 144.257812 157.863281 C 143.613281 154.769531 140.335938 140.917969 134.5625 136.023438 C 128.65625 130.992188 101.414062 123.144531 95.644531 121.527344 L 108.339844 150.84375 C 108.433594 151.121094 108.339844 151.445312 108.0625 151.539062 C 107.925781 151.582031 93.9375 157.816406 91.535156 163.816406 C 90.933594 165.339844 90.382812 166.632812 89.917969 167.742188 C 88.304688 171.710938 87.75 173.097656 87.75 175.914062 Z M 87.75 175.914062 " fill-opacity="1" fill-rule="nonzero"/></g><path fill="#fdfdfd" d="M 82.117188 159.800781 L 73.53125 153.199219 L 65.636719 130.160156 C 65.636719 130.160156 58.433594 138.519531 56.308594 148.535156 C 54.140625 158.554688 57.464844 163.539062 61.757812 164.832031 C 66.003906 166.125 70.066406 165.757812 70.066406 165.757812 C 70.066406 165.757812 74.222656 171.480469 79.117188 169.589844 C 83.269531 167.972656 84.703125 163.265625 82.117188 159.800781 Z M 82.117188 159.800781 " fill-opacity="1" fill-rule="nonzero"/><path fill="#0c322f" d="M 77.039062 170.511719 C 73.4375 170.511719 70.574219 167.234375 69.835938 166.3125 C 68.820312 166.355469 65.3125 166.496094 61.570312 165.339844 C 59.496094 164.695312 52.9375 161.601562 55.753906 148.398438 C 57.878906 138.425781 65.128906 129.929688 65.21875 129.839844 C 65.359375 129.699219 65.542969 129.605469 65.726562 129.652344 C 65.910156 129.699219 66.050781 129.839844 66.144531 130.023438 L 73.992188 152.875 L 82.441406 159.386719 C 82.488281 159.433594 82.53125 159.433594 82.53125 159.476562 C 83.824219 161.234375 84.242188 163.402344 83.640625 165.433594 C 83.039062 167.558594 81.425781 169.21875 79.253906 170.097656 C 78.515625 170.375 77.777344 170.511719 77.039062 170.511719 Z M 70.066406 165.203125 C 70.25 165.203125 70.390625 165.296875 70.484375 165.433594 C 70.527344 165.480469 74.453125 170.789062 78.886719 169.082031 C 80.730469 168.34375 82.117188 166.910156 82.625 165.109375 C 83.085938 163.449219 82.761719 161.648438 81.703125 160.171875 L 73.207031 153.613281 C 73.113281 153.570312 73.066406 153.476562 73.023438 153.382812 L 65.402344 131.222656 C 63.648438 133.4375 58.480469 140.550781 56.769531 148.628906 C 55.015625 156.9375 56.910156 162.800781 61.894531 164.324219 C 66.003906 165.574219 69.976562 165.203125 70.019531 165.203125 C 70.019531 165.203125 70.066406 165.203125 70.066406 165.203125 Z M 70.066406 165.203125 " fill-opacity="1" fill-rule="nonzero"/><path fill="#fdfdfd" d="M 71.175781 105.601562 C 66.929688 108.371094 61.386719 116.957031 59.957031 126.558594 C 58.664062 135.238281 59.632812 139.765625 62.402344 144.703125 C 65.726562 150.660156 74.175781 155 84.195312 155 C 94.214844 155 97.675781 155.277344 105.199219 153.429688 C 112.726562 151.582031 123.34375 143.917969 116.742188 129.097656 C 116.742188 129.097656 115.636719 112.847656 106.449219 105.644531 C 102.015625 102.691406 99.105469 100.382812 90.566406 100.058594 C 82.023438 99.691406 74.546875 103.382812 71.175781 105.601562 Z M 71.175781 105.601562 " fill-opacity="1" fill-rule="nonzero"/><path fill="#0c322f" d="M 90.011719 155.507812 C 89.226562 155.507812 88.394531 155.507812 87.472656 155.507812 L 84.195312 155.507812 C 74.40625 155.507812 65.449219 151.261719 61.941406 144.933594 C 59.355469 140.273438 58.109375 135.746094 59.449219 126.46875 C 60.832031 116.910156 66.375 108.140625 70.898438 105.136719 C 75.332031 102.183594 82.855469 99.136719 90.566406 99.460938 C 98.738281 99.78125 101.878906 101.90625 105.894531 104.585938 L 106.726562 105.136719 C 115.773438 112.25 117.113281 127.4375 117.25 128.914062 C 119.835938 134.730469 120.019531 139.949219 117.851562 144.425781 C 115.21875 149.78125 109.679688 152.828125 105.339844 153.890625 C 99.429688 155.371094 96.011719 155.507812 90.011719 155.507812 Z M 71.175781 105.601562 L 71.453125 106.0625 C 67.113281 108.925781 61.804688 117.417969 60.464844 126.652344 C 59.125 135.703125 60.28125 139.855469 62.820312 144.472656 C 66.1875 150.476562 74.730469 154.492188 84.148438 154.492188 L 87.425781 154.492188 C 94.953125 154.492188 98.460938 154.539062 105.015625 152.921875 C 109.125 151.90625 114.386719 149.042969 116.835938 144.011719 C 118.867188 139.808594 118.683594 134.871094 116.1875 129.332031 C 116.144531 129.285156 116.144531 129.191406 116.144531 129.144531 C 116.144531 129.007812 114.941406 113.03125 106.078125 106.0625 L 105.292969 105.554688 C 101.277344 102.875 98.367188 100.9375 90.519531 100.613281 C 80.917969 100.105469 72.976562 105.046875 71.5 106.015625 Z M 71.175781 105.601562 " fill-opacity="1" fill-rule="nonzero"/><path fill="#fdfdfd" d="M 82.117188 145.398438 C 82.117188 145.398438 84.933594 146.691406 86.273438 143.640625 Z M 82.117188 145.398438 " fill-opacity="1" fill-rule="nonzero"/><path fill="#0c322f" d="M 83.503906 146.183594 C 82.625 146.183594 81.980469 145.859375 81.933594 145.859375 C 81.65625 145.71875 81.5625 145.441406 81.65625 145.167969 C 81.792969 144.890625 82.070312 144.75 82.347656 144.890625 C 82.347656 144.890625 83.363281 145.351562 84.332031 144.980469 C 84.933594 144.75 85.441406 144.242188 85.808594 143.410156 C 85.902344 143.132812 86.226562 142.996094 86.503906 143.132812 C 86.78125 143.273438 86.871094 143.550781 86.78125 143.828125 C 86.316406 144.890625 85.625 145.582031 84.703125 145.949219 C 84.285156 146.136719 83.871094 146.183594 83.503906 146.183594 Z M 83.503906 146.183594 " fill-opacity="1" fill-rule="nonzero"/><path fill="#fdfdfd" d="M 89.320312 150.613281 C 89.320312 150.613281 86.085938 150.335938 84.703125 145.398438 Z M 89.320312 150.613281 " fill-opacity="1" fill-rule="nonzero"/><path fill="#0c322f" d="M 89.320312 151.167969 C 89.273438 151.167969 89.273438 151.167969 89.320312 151.167969 C 89.132812 151.167969 85.671875 150.796875 84.195312 145.582031 C 84.101562 145.304688 84.285156 145.027344 84.5625 144.933594 C 84.886719 144.890625 85.117188 145.027344 85.210938 145.304688 C 86.457031 149.78125 89.226562 150.105469 89.367188 150.152344 C 89.640625 150.199219 89.875 150.429688 89.828125 150.707031 C 89.828125 150.9375 89.597656 151.167969 89.320312 151.167969 Z M 89.320312 151.167969 " fill-opacity="1" fill-rule="nonzero"/><path fill="#0c322f" d="M 89.734375 130.160156 C 89.734375 130.5 89.671875 130.820312 89.542969 131.132812 C 89.414062 131.445312 89.230469 131.71875 88.992188 131.957031 C 88.753906 132.195312 88.476562 132.378906 88.167969 132.507812 C 87.855469 132.636719 87.53125 132.699219 87.195312 132.699219 C 86.859375 132.699219 86.535156 132.636719 86.222656 132.507812 C 85.914062 132.378906 85.636719 132.195312 85.398438 131.957031 C 85.160156 131.71875 84.976562 131.445312 84.847656 131.132812 C 84.722656 130.820312 84.65625 130.5 84.65625 130.160156 C 84.65625 129.824219 84.722656 129.5 84.847656 129.191406 C 84.976562 128.878906 85.160156 128.605469 85.398438 128.367188 C 85.636719 128.128906 85.914062 127.945312 86.222656 127.816406 C 86.535156 127.6875 86.859375 127.621094 87.195312 127.621094 C 87.53125 127.621094 87.855469 127.6875 88.167969 127.816406 C 88.476562 127.945312 88.753906 128.128906 88.992188 128.367188 C 89.230469 128.605469 89.414062 128.878906 89.542969 129.191406 C 89.671875 129.5 89.734375 129.824219 89.734375 130.160156 Z M 89.734375 130.160156 " fill-opacity="1" fill-rule="nonzero"/><path fill="#0c322f" d="M 115.636719 130.160156 C 115.636719 130.5 115.570312 130.820312 115.441406 131.132812 C 115.3125 131.445312 115.128906 131.71875 114.890625 131.957031 C 114.652344 132.195312 114.378906 132.378906 114.066406 132.507812 C 113.757812 132.636719 113.433594 132.699219 113.097656 132.699219 C 112.757812 132.699219 112.433594 132.636719 112.125 132.507812 C 111.8125 132.378906 111.539062 132.195312 111.300781 131.957031 C 111.0625 131.71875 110.878906 131.445312 110.75 131.132812 C 110.621094 130.820312 110.554688 130.5 110.554688 130.160156 C 110.554688 129.824219 110.621094 129.5 110.75 129.191406 C 110.878906 128.878906 111.0625 128.605469 111.300781 128.367188 C 111.539062 128.128906 111.8125 127.945312 112.125 127.816406 C 112.433594 127.6875 112.757812 127.621094 113.097656 127.621094 C 113.433594 127.621094 113.757812 127.6875 114.066406 127.816406 C 114.378906 127.945312 114.652344 128.128906 114.890625 128.367188 C 115.128906 128.605469 115.3125 128.878906 115.441406 129.191406 C 115.570312 129.5 115.636719 129.824219 115.636719 130.160156 Z M 115.636719 130.160156 " fill-opacity="1" fill-rule="nonzero"/><path fill="#fdfdfd" d="M 77.5 104.585938 C 77.5 104.585938 76.898438 101.722656 75.285156 99.550781 C 73.113281 96.644531 69.375 94.472656 65.636719 96.875 C 60.832031 99.96875 62.265625 104.816406 64.574219 108 C 66.097656 110.078125 68.265625 111.277344 68.265625 111.277344 Z M 77.5 104.585938 " fill-opacity="1" fill-rule="nonzero"/><path fill="#0c322f" d="M 68.265625 111.832031 C 68.175781 111.832031 68.082031 111.832031 67.988281 111.785156 C 67.898438 111.742188 65.679688 110.492188 64.113281 108.324219 C 62.355469 105.878906 61.570312 103.199219 61.988281 101.03125 C 62.355469 99.183594 63.464844 97.660156 65.3125 96.457031 C 69.421875 93.828125 73.4375 96.320312 75.652344 99.273438 C 77.363281 101.539062 77.960938 104.398438 77.960938 104.539062 C 78.007812 104.816406 77.824219 105.09375 77.546875 105.183594 C 77.269531 105.230469 76.992188 105.046875 76.898438 104.769531 C 76.898438 104.722656 76.300781 102 74.777344 99.921875 C 72.792969 97.152344 69.375 95.074219 65.910156 97.289062 C 64.296875 98.304688 63.328125 99.644531 63.050781 101.167969 C 62.679688 103.105469 63.371094 105.460938 64.988281 107.675781 C 66.417969 109.664062 68.496094 110.816406 68.542969 110.816406 C 68.820312 110.957031 68.914062 111.277344 68.773438 111.554688 C 68.636719 111.742188 68.453125 111.832031 68.265625 111.832031 Z M 68.265625 111.832031 " fill-opacity="1" fill-rule="nonzero"/><path fill="#fdfdfd" d="M 68.683594 101.304688 C 68.683594 101.304688 71.128906 102.738281 72.050781 105.601562 Z M 68.683594 101.304688 " fill-opacity="1" fill-rule="nonzero"/><path fill="#0c322f" d="M 72.007812 106.109375 C 71.777344 106.109375 71.589844 105.96875 71.5 105.738281 C 70.667969 103.105469 68.40625 101.722656 68.40625 101.722656 C 68.128906 101.582031 68.082031 101.261719 68.21875 100.984375 C 68.359375 100.753906 68.683594 100.660156 68.960938 100.796875 C 69.050781 100.84375 71.589844 102.367188 72.558594 105.414062 C 72.652344 105.691406 72.515625 105.96875 72.191406 106.0625 C 72.144531 106.109375 72.097656 106.109375 72.007812 106.109375 Z M 72.007812 106.109375 " fill-opacity="1" fill-rule="nonzero"/><path fill="#0c322f" d="M 114.34375 134.179688 C 114.34375 136.210938 111.988281 138.5625 109.078125 138.5625 C 106.171875 138.5625 103.816406 136.210938 103.816406 134.179688 C 103.816406 132.148438 106.171875 131.175781 109.078125 131.175781 C 111.988281 131.222656 114.34375 132.148438 114.34375 134.179688 Z M 114.34375 134.179688 " fill-opacity="1" fill-rule="nonzero"/><path fill="#0c322f" d="M 110.09375 149.460938 C 109.816406 149.460938 109.585938 149.230469 109.585938 148.953125 L 109.585938 138.472656 C 109.585938 138.195312 109.816406 137.964844 110.09375 137.964844 C 110.371094 137.964844 110.601562 138.195312 110.601562 138.472656 L 110.601562 148.90625 C 110.648438 149.230469 110.371094 149.460938 110.09375 149.460938 Z M 110.09375 149.460938 " fill-opacity="1" fill-rule="nonzero"/><path fill="#fdfdfd" d="M 128.65625 157.910156 C 129.253906 156.894531 129.53125 153.84375 129.761719 152.691406 Z M 128.65625 157.910156 " fill-opacity="1" fill-rule="nonzero"/><path fill="#0c322f" d="M 128.65625 158.417969 C 128.5625 158.417969 128.46875 158.371094 128.378906 158.324219 C 128.148438 158.183594 128.054688 157.863281 128.191406 157.585938 C 128.609375 156.894531 128.886719 155 129.023438 153.707031 C 129.070312 153.246094 129.164062 152.828125 129.207031 152.554688 C 129.253906 152.277344 129.53125 152.089844 129.808594 152.136719 C 130.085938 152.183594 130.269531 152.460938 130.222656 152.738281 C 130.179688 153.015625 130.132812 153.429688 130.039062 153.84375 C 129.808594 155.371094 129.578125 157.261719 129.070312 158.09375 C 129.023438 158.324219 128.839844 158.417969 128.65625 158.417969 Z M 128.65625 158.417969 " fill-opacity="1" fill-rule="nonzero"/></svg>